# xmcd
#
# Track frame offsets: 
#        150
#        13344
#        28750
#        38204
#        52473
#        66941
#        83338
#        95404
#        107869
#        120652
#        136764
#        158989
#        172616
#        185034
#        202073
#        215726
#        226630
#        241402
#        251223
#        261712
#
# Disc length: 3568 seconds
#
# Revision: 0
# Processed by: cddbd v1.5.2PL0 Copyright (c) Steve Scherf et al.
# Submitted via: ExactAudioCopyFreeDBPlugin 1.0
#
DISCID=270dee14
DTITLE=Various Artist - The Very Best Of Kiwi Country
DYEAR=2001
DGENRE=Country
TTITLE0=Toni Williams - The One I sing My Love Songs To
TTITLE1=Patsy Riggir - Beautiful Lady
TTITLE2=John Grenell - Welcome To Our World
TTITLE3=Suzanne Prentice - When I Dream
TTITLE4=The Warratahs - Hands Of My Heart
TTITLE5=Roger Tibbs - Born To Be A Cowboy
TTITLE6=Brendan Dugan and Jodie Vaughan - No Fool Like An Old Fool
TTITLE7=Allison Durbin - I Dont Wanna Play House
TTITLE8=Al Hunter - Theres A Ble Sky Waiting For me
TTITLE9=Jan Cooper - If I Didnt Live You
TTITLE10=Barry Saunders - Holy Morning
TTITLE11=Patsy Riggir - Lay Down Beside Me
TTITLE12=Hamilton County Bluegrass Band - Carolina On My Mind
TTITLE13=The Warratahs - Maureen
TTITLE14=Jodie Vaughan - Lay A Little Lovin On Me
TTITLE15=Ken Lemon - King Of The Road
TTITLE16=Allison Durbin - If I Said You Had A Beautiful Body Would You
TTITLE16=Hold It Against Me
TTITLE17=Brendan Dugan - Mama Tried
TTITLE18=Suzanne - Stand By Your Man
TTITLE19=Hamilton County Bluegrass Band - Blue Grass Express
EXTD=
EXTT0=
EXTT1=
EXTT2=
EXTT3=
EXTT4=
EXTT5=
EXTT6=
EXTT7=
EXTT8=
EXTT9=
EXTT10=
EXTT11=
EXTT12=
EXTT13=
EXTT14=
EXTT15=
EXTT16=
EXTT17=
EXTT18=
EXTT19=
PLAYORDER=
